# xmcd
#
# Track frame offsets:
#	300
#	15341
#	30857
#	44307
#	64162
#	79172
#	94343
#	124393
#	138717
#	152134
#	167811
#
# Disc length: 2429 seconds
#
# Revision: 1
# Processed by: cddbd v1.5.2PL0 Copyright (c) Steve Scherf et al.
# Submitted via: audiograbber 1.83.01
#
DISCID=8e09790b
DTITLE=Lousiana Men - Welcome to the Bon Ton Club
DYEAR=2004
DGENRE=Blues
TTITLE0='ti zydeco
TTITLE1=the devil
TTITLE2=day  by day
TTITLE3=a change is gonna come
TTITLE4=fishin' blues
TTITLE5=the jealous kind
TTITLE6=it's a man's world
TTITLE7=so people have fun
TTITLE8=lafayet' encore
TTITLE9=washed my hands
TTITLE10=I wonder who's kissing her
EXTD=Live cajun, zydeco and blues from the Netherlands
EXTT0=
EXTT1=
EXTT2=
EXTT3=
EXTT4=
EXTT5=
EXTT6=
EXTT7=
EXTT8=
EXTT9=
EXTT10=
PLAYORDER=
